<?xml version="1.0" encoding="UTF-8" standalone="no"?>
<!-- Created with Inkscape (http://www.inkscape.org/) -->

<svg
   xmlns:dc="http://purl.org/dc/elements/1.1/"
   xmlns:cc="http://creativecommons.org/ns#"
   xmlns:rdf="http://www.w3.org/1999/02/22-rdf-syntax-ns#"
   xmlns:svg="http://www.w3.org/2000/svg"
   xmlns="http://www.w3.org/2000/svg"
   xmlns:sodipodi="http://sodipodi.sourceforge.net/DTD/sodipodi-0.dtd"
   xmlns:inkscape="http://www.inkscape.org/namespaces/inkscape"
   version="1.1"
   id="svg2"
   xml:space="preserve"
   width="71.197701"
   height="69.214821"
   viewBox="0 0 71.197697 69.214821"
   sodipodi:docname="logo.svg"
   inkscape:export-filename="/halley/logo-circle-128.png"
   inkscape:export-xdpi="222.50085"
   inkscape:export-ydpi="222.50085"
   inkscape:version="0.92.2 5c3e80d, 2017-08-06"><metadata
     id="metadata8"><rdf:RDF><cc:Work
         rdf:about=""><dc:format>image/svg+xml</dc:format><dc:type
           rdf:resource="http://purl.org/dc/dcmitype/StillImage" /><dc:title></dc:title></cc:Work></rdf:RDF></metadata><defs
     id="defs6"><clipPath
       clipPathUnits="userSpaceOnUse"
       id="clipPath18"><path
         d="M 0,595 H 842 V 0 H 0 Z"
         id="path16"
         inkscape:connector-curvature="0" /></clipPath></defs><sodipodi:namedview
     pagecolor="#ffffff"
     bordercolor="#666666"
     borderopacity="1"
     objecttolerance="10"
     gridtolerance="10"
     guidetolerance="10"
     inkscape:pageopacity="0"
     inkscape:pageshadow="2"
     inkscape:window-width="1322"
     inkscape:window-height="739"
     id="namedview4"
     showgrid="false"
     fit-margin-top="10"
     fit-margin-left="10"
     fit-margin-bottom="10"
     fit-margin-right="10"
     inkscape:pagecheckerboard="true"
     inkscape:zoom="4.1900234"
     inkscape:cx="24.734036"
     inkscape:cy="28.621126"
     inkscape:window-x="44"
     inkscape:window-y="0"
     inkscape:window-maximized="1"
     inkscape:current-layer="g10" /><g
     id="g10"
     inkscape:groupmode="layer"
     inkscape:label="2(2)"
     transform="matrix(1.3333333,0,0,-1.3333333,-461.83923,636.93447)"><g
       id="g842"><circle
         r="20.710033"
         transform="scale(1,-1)"
         cy="-452.22769"
         cx="372.99634"
         id="path833"
         style="fill:#ffffff;fill-opacity:1;stroke:none;stroke-width:0.60115212;stroke-miterlimit:4;stroke-dasharray:none;stroke-opacity:1" /><g
         transform="translate(-0.08222954,0.4823853)"
         id="g12"><g
           clip-path="url(#clipPath18)"
           id="g14"><g
             transform="translate(387.3223,443.8022)"
             id="g20"><path
               inkscape:connector-curvature="0"
               id="path22"
               style="fill:#85c442;fill-opacity:1;fill-rule:evenodd;stroke:none"
               d="M 0,0 C 1.152,1.208 2.132,2.498 4.111,2.394 H 4.14 C 4.289,2.396 4.419,2.38 4.53,2.353 L 4.539,2.351 V 2.349 C 4.891,2.258 5.031,2.038 4.916,1.822 4.804,1.614 4.628,1.403 4.522,1.253 -0.397,-5.566 -4.54,-8.492 -8.724,-9.598 c -5.195,-1.661 -10.71,-1.046 -15.409,1.737 -4.418,2.617 -7.683,6.977 -8.844,12.133 -0.671,2.987 -0.591,5.905 0.072,8.584 3.063,12.382 17.685,18.717 27.049,8.308 -14.812,9.945 -28.789,-5.953 -20.631,-20.254 0.833,-1.466 1.883,-2.791 3.105,-3.938 4.968,1.561 9.489,1.813 13.676,2.015 l 0.021,0.004 0.033,0.008 0.044,0.007 h 0.003 l 0.055,0.012 0.07,0.011 0.079,0.014 0.088,0.016 0.099,0.015 0.108,0.017 0.116,0.017 0.123,0.02 0.132,0.019 0.137,0.021 h 0.001 l 0.143,0.02 h 0.002 l 0.149,0.021 0.154,0.021 h 0.003 l 0.158,0.02 h 0.001 l 0.163,0.021 0.168,0.021 0.17,0.019 h 10e-4 l 0.172,0.02 0.174,0.017 h 0.002 l 0.175,0.017 0.176,0.018 h 0.002 l 0.176,0.015 0.177,0.014 0.176,0.013 0.175,0.01 0.172,0.009 h 0.002 l 0.17,0.008 0.168,0.006 0.162,0.004 h 0.16 l 0.157,-0.002 0.148,-0.004 h 0.002 l 0.143,-0.006 0.139,-0.009 0.131,-0.014 0.124,-0.015 0.115,-0.019 0.108,-0.022 0.099,-0.027 0.089,-0.029 0.078,-0.033 c 0.049,-0.023 0.092,-0.05 0.126,-0.079 l 0.047,-0.046 0.032,-0.05 c 0.018,-0.035 0.027,-0.072 0.027,-0.114 L -3.687,-1.071 -3.708,-1.14 -3.745,-1.215 C -3.773,-1.268 -3.814,-1.32 -3.864,-1.38 L -3.947,-1.47 -4.049,-1.565 -4.167,-1.667 H -4.169 L -4.306,-1.775 -4.46,-1.889 h -0.002 l -0.174,-0.12 H -4.638 L -4.833,-2.136 -5.047,-2.27 -5.285,-2.408 c -1.003,-0.579 -1.96,-0.736 -3.02,-1.104 L -8.338,-3.524 -8.371,-3.535 -8.403,-3.547 -8.438,-3.559 -8.471,-3.57 -8.505,-3.583 -8.539,-3.595 -8.573,-3.607 -8.608,-3.62 -8.643,-3.632 -8.678,-3.646 -8.714,-3.659 -8.749,-3.672 -8.784,-3.684 -8.82,-3.698 -8.857,-3.711 -8.892,-3.727 -8.928,-3.74 -8.965,-3.753 -9.001,-3.767 -9.039,-3.782 -9.077,-3.796 -9.114,-3.812 -9.152,-3.825 v -0.002 l -0.037,-0.013 -0.039,-0.015 -0.038,-0.016 -0.039,-0.016 -0.038,-0.015 -0.039,-0.015 -0.04,-0.016 -0.039,-0.015 -0.04,-0.018 -0.039,-0.015 -0.041,-0.016 v -0.002 l -0.04,-0.015 -0.041,-0.017 -0.04,-0.016 -0.041,-0.017 -0.041,-0.018 -0.042,-0.017 -0.04,-0.017 -0.043,-0.018 -0.04,-0.017 -0.043,-0.017 -0.042,-0.018 v -0.002 l -0.043,-0.017 -0.042,-0.018 v -0.001 l -0.043,-0.018 -0.044,-0.017 v -0.002 l -0.043,-0.017 -0.044,-0.02 -0.044,-0.017 v -0.002 l -0.043,-0.017 v -0.002 l -0.044,-0.018 v -0.002 l -0.044,-0.017 v -0.002 l -0.045,-0.017 v -0.002 l -0.044,-0.018 v -0.002 l -0.047,-0.019 -0.044,-0.019 v -0.002 l -0.046,-0.018 v -10e-4 l -0.045,-0.02 v -0.002 l -0.046,-0.017 v -0.002 l -0.046,-0.019 v -0.002 l -0.097,-0.041 v -0.002 l -0.091,-0.04 V -4.62 l -0.085,-0.039 v -0.002 l -0.081,-0.036 v -0.002 l -0.077,-0.037 v -0.002 l -0.069,-0.034 -0.066,-0.035 -0.061,-0.033 v -0.002 l -0.059,-0.031 v -0.002 l -0.051,-0.029 v -0.002 l -0.047,-0.029 -0.044,-0.028 -0.039,-0.028 -0.035,-0.027 -0.03,-0.024 -0.028,-0.024 v -0.002 l -0.023,-0.021 -0.017,-0.023 -0.016,-0.022 -0.011,-0.019 -0.008,-0.019 -0.004,-0.017 v -0.002 l -0.002,-0.016 0.004,-0.017 0.006,-0.016 0.01,-0.013 v -0.002 l 0.011,-0.014 0.035,-0.025 0.021,-0.011 0.023,-0.01 v -0.002 l 0.028,-0.01 0.028,-0.009 0.033,-0.008 0.035,-0.01 0.037,-0.007 0.038,-0.006 v -0.002 l 0.042,-0.006 0.043,-0.005 0.046,-0.006 0.047,-0.006 0.05,-0.004 0.05,-0.006 0.054,-0.004 0.054,-0.004 0.056,-0.004 0.058,-0.002 0.058,-0.003 0.06,-0.002 0.062,-0.002 0.061,-0.004 0.064,-0.002 0.066,-0.002 0.065,-0.002 0.066,-0.002 h 0.067 l 0.068,-0.002 0.068,-10e-4 0.067,-0.002 0.07,-0.002 0.069,-0.002 0.069,-0.002 0.07,-0.002 0.07,-0.002 0.214,-0.006 h 0.212 l 0.206,0.002 0.205,0.006 0.203,0.01 0.196,0.011 v 0.002 l 0.196,0.015 0.193,0.02 0.189,0.023 0.185,0.027 0.183,0.029 v 0.002 l 0.182,0.031 v 0.002 l 0.177,0.034 v 0.002 l 0.176,0.039 0.174,0.042 0.17,0.045 v 0.002 l 0.167,0.048 0.167,0.05 v 0.002 l 0.163,0.054 0.162,0.056 V -4.9 l 0.161,0.06 0.156,0.062 v 0.002 l 0.156,0.065 0.153,0.067 v 0.003 l 0.152,0.069 v 0.002 l 0.151,0.073 0.148,0.076 v 0.002 l 0.147,0.077 v 0.002 l 0.145,0.081 0.145,0.083 v 0.002 l 0.143,0.085 v 0.002 L -4.426,-4 v 10e-4 l 0.141,0.091 0.139,0.093 0.137,0.096 0.137,0.099 0.135,0.098 v 0.002 l 0.135,0.102 0.136,0.105 0.133,0.105 0.133,0.109 0.133,0.11 0.131,0.112 v 0.002 l 0.131,0.113 0.132,0.116 0.131,0.118 0.131,0.12 0.13,0.119 0.131,0.124 0.131,0.123 0.129,0.128 0.132,0.127 0.131,0.127 v 0.003 l 0.131,0.129 0.131,0.131 0.132,0.133 0.133,0.136 0.133,0.134 0.133,0.138 0.135,0.137 0.136,0.14 0.134,0.139 0.137,0.141 0.139,0.143 0.06,0.064 0.062,0.061 z" /></g><g
             transform="translate(375.0991,460.5991)"
             id="g24"><path
               inkscape:connector-curvature="0"
               id="path26"
               style="fill:#164472;fill-opacity:1;fill-rule:evenodd;stroke:none"
               d="m 0,0 -6.433,-4.923 v -10.561 l 6.576,-0.002 c -2.789,-0.34 -9.376,-1.623 -10.47,-2.397 V -7.267 H -15.7 l 4.547,3.48 L 0,4.748 4.41,1.372 v 1.654 h 3.849 v -4.599 l 7.44,-5.694 h -5.373 v -10.214 c -0.475,1.329 -3.986,1.838 -5.84,1.997 l 1.947,0.013 v 10.548 z" /></g></g></g></g></g></svg>